<?xml version="1.0" encoding="utf-8"?>
<!-- Generator: Adobe Illustrator 23.0.3, SVG Export Plug-In . SVG Version: 6.00 Build 0)  -->
<svg version="1.1" id="Layer_1" xmlns="http://www.w3.org/2000/svg" xmlns:xlink="http://www.w3.org/1999/xlink" x="0px" y="0px"
	 viewBox="0 0 1920 1440" style="enable-background:new 0 0 1920 1440;" xml:space="preserve">
<style type="text/css">
	.st0{fill:#020101;}
	.st1{fill:#010101;}
	.st2{fill:#020201;}
	.st3{fill:#871945;}
	.st4{fill:#FBC0DF;}
	.st5{fill:#FEFEFE;}
</style>
<g>
	<path class="st0" d="M920.25,681.13c-159.51,0-319.03,0-478.54,0c-1.28,0-2.58,0.14-3.84-0.03c-2.36-0.32-3.33,0.91-4.26,2.87
		c-10.85,22.92-19.29,46.65-24.25,71.56c-2.79,13.97-4.53,28.07-5.38,42.31c-0.8,13.29-0.56,26.56,0.43,39.8
		c1.56,20.78,5.2,41.22,10.76,61.31c12.2,44.11,32.33,84.36,59.09,121.37c31.17,43.11,69.17,79.17,113.2,108.91
		c50.5,34.12,105.58,57.72,165,71.26c19.04,4.34,38.26,7.46,57.67,9.63c25.66,2.88,51.39,3.59,77.15,2.49
		c52.69-2.26,103.65-12.79,152.5-32.9c47.82-19.68,90.62-47.26,128.88-81.97c36.87-33.46,67.72-71.89,93.85-114.18
		c25.31-40.97,45.4-84.42,61.33-129.82c12.19-34.73,21.84-70.17,29.02-106.27c1.59-7.99,3.05-16.01,4.59-24.02
		c0.38-1.96,0.54-2.14,2.46-2.16c5.44-0.04,10.88-0.02,16.32-0.02c8.32,0,16.64,0,24.96,0c1.12,0,2.24,0.01,3.36-0.09
		c0.69-0.06,1.13-0.54,1.19-1.25c0.07-0.79,0.1-1.59,0.1-2.39c0.01-10.88,0-21.76,0-32.64c0-0.64,0-1.28-0.04-1.92
		c-0.05-1.09-0.54-1.8-1.72-1.84c-0.48-0.01-0.96-0.03-1.44-0.03c-1.44-0.01-2.88,0-4.32,0
		C1238.96,681.13,1079.61,681.13,920.25,681.13z M1008.32,1148.59c-0.55,0.3-1.07,0.68-1.65,0.89
		c-30.08,10.76-61.06,17.55-92.78,21.01c-11.92,1.3-23.89,1.98-35.88,2.36c-24.19,0.78-48.27-0.53-72.26-3.52
		c-19.52-2.43-38.79-6.18-57.84-11.15c-56.16-14.66-107.66-39.06-154.28-73.68c-10.28-7.63-20.18-15.73-29.68-24.3
		c-1.14-1.03-2.74-1.8-2.8-3.68c-1.89,0.17-2.83-1.3-3.93-2.38c-7.86-7.74-15.79-15.41-23.15-23.65
		c-7.25-8.11-14.28-16.39-20.9-25.02c-15.22-19.85-28.37-40.97-39.16-63.57c-7.8-16.34-14.37-33.12-19.32-50.53
		c-2.1-7.37-3.99-14.8-5.45-22.33c-1.68-8.62-3.04-17.27-4-26.01c-0.75-6.83-1.32-13.67-1.56-20.52
		c-0.45-12.47,0.02-24.92,1.68-37.3c0.76-5.69,1.26-11.44,2.36-17.06c2.69-13.8,6.11-27.43,11.1-40.61
		c2.78-7.34,1.25-6.21,9.03-6.21c280.77-0.02,561.53-0.02,842.3-0.01c8.82,0,6.99-0.67,5.7,6.78c-2.13,12.26-4.81,24.43-7.64,36.55
		c-5.13,21.94-11.31,43.6-18.44,64.96c-4.91,14.7-10.28,29.24-16.18,43.58c-5.6,13.61-11.63,27.01-18.03,40.25
		c-3.13,6.47-6.57,12.8-9.92,19.17c-6.11,11.61-12.74,22.92-19.75,33.99c-10.44,16.48-21.67,32.41-33.84,47.69
		c-9.87,12.4-20.44,24.16-31.36,35.62c-4.41,4.63-9.13,8.95-13.79,13.34c-10.6,9.99-21.72,19.34-33.27,28.21
		c-15.76,12.09-32.36,22.9-49.79,32.4c-14.75,8.04-29.89,15.3-45.59,21.32C1014.98,1146.42,1011.83,1148.04,1008.32,1148.59z"/>
	<path class="st1" d="M617.26,560.5c66.07,0,132.14,0.01,198.21-0.01c7.35,0,5.67,0.86,7.28-5.84c3.13-13.05,5.95-26.18,8.07-39.44
		c1.46-9.16,2.65-18.35,3.64-27.57c1.8-16.9,2.29-33.84,1.67-50.8c-1.22-33.18-7.28-65.4-20.12-96.16
		c-13.74-32.91-33.94-61.11-61.56-83.83c-25.38-20.88-54.2-34.83-86.13-42.43c-21-5-42.3-6.86-63.82-5.56
		c-83.7,5.06-157.2,54.55-189.73,136.4c-7.71,19.4-12.72,39.5-15.58,60.18c-2.67,19.24-3.32,38.56-2.4,57.93
		c1.27,26.42,5.4,52.45,11.72,78.13c1.37,5.59,2.79,11.16,4.23,16.73c0.57,2.19,0.62,2.19,2.96,2.27c1.28,0.04,2.56,0.01,3.84,0.01
		C485.44,560.5,551.35,560.5,617.26,560.5z M448.65,370.48c1.15,0.68,1.62,1.92,2.33,2.95c23.75,34.6,69.52,42.45,103.02,22.63
		c29.35-17.37,43.5-51.56,34.4-84.2c-5.79-20.78-18.65-36.09-37.51-46.46c-1.38-0.76-3.04-1.08-4.15-2.6
		c0.72-0.36,1.38-0.74,2.07-1.02c17.33-6.98,35.31-11.27,53.92-12.66c18.12-1.35,36.12-0.31,53.89,3.69
		c31.95,7.2,59.9,21.87,83.34,44.83c19.42,19.02,33.19,41.66,42.45,67.12c6.87,18.88,10.84,38.4,12.69,58.39
		c1.5,16.13,1.5,32.28,0.54,48.41c-0.92,15.33-3.04,30.54-5.77,45.65c-0.19,1.07-0.32,2.21-1.36,3.29c-1.22,0-2.65,0-4.08,0
		c-111.67,0-223.33,0-335,0c-1.12,0-2.24-0.02-3.36-0.05c-0.94-0.02-1.42-0.55-1.6-1.44c-0.16-0.78-0.38-1.55-0.54-2.33
		c-3.45-16.94-6-34.02-6.92-51.29c-0.94-17.59-0.76-35.17,1.59-52.68c1.81-13.5,4.59-26.76,8.73-39.73
		C447.62,372.07,447.82,371.13,448.65,370.48z"/>
	<path class="st2" d="M1251.98,560.79c57.12,0,114.23,0,171.35,0c6.78,0,5.3,0.52,6.77-5.39c4.14-16.6,7.83-33.29,10.5-50.2
		c1.89-12.01,3.43-24.06,4.38-36.18c0.96-12.29,1.56-24.59,1.38-36.91c-0.4-27.3-3.6-54.22-11.18-80.53
		c-7.74-26.84-19.42-51.75-36.58-73.91c-23.51-30.36-53.43-51.57-90.28-62.76c-20.27-6.16-41.03-8.49-62.11-6.95
		c-41.25,3-77.45,18.4-108.69,45.41c-24.64,21.31-42.67,47.46-55.5,77.27c-8.32,19.32-13.94,39.43-17.54,60.15
		c-4.29,24.71-5.45,49.59-4.31,74.58c1.28,27.86,5.44,55.35,11.61,82.54c0.85,3.74,1.69,7.48,2.52,11.23
		c0.24,1.11,0.92,1.62,2.01,1.63c1.44,0.02,2.88,0.02,4.32,0.02C1137.75,560.79,1194.87,560.79,1251.98,560.79z M1200.65,260.93
		c0.06-0.5,0.03-0.76,0.11-0.8c0.98-0.52,1.96-1.07,2.99-1.49c15.96-6.6,32.53-10.37,49.83-10.89c21.64-0.66,42.29,3.43,61.89,12.66
		c23.76,11.19,42.57,28.11,57.22,49.76c12.41,18.34,20.66,38.53,26,59.94c3.84,15.4,5.98,31.05,7.04,46.88
		c1.07,16.01,0.71,31.99-0.54,47.95c-1.35,17.23-3.88,34.3-7.25,51.26c-1.1,5.53-1.21,4.46-5.43,4.46
		c-93.6,0.02-187.2,0.02-280.8,0.02c-1.12,0-2.24-0.03-3.36-0.04c-0.95-0.02-1.39-0.54-1.54-1.45c-0.71-4.26-1.47-8.5-2.18-12.76
		c-2.2-13.27-3.67-26.62-4.29-40.05c-0.86-18.55-0.7-37.1,1.65-55.58c1.51-11.91,3.67-23.68,6.79-35.28
		c0.08-0.31,0.13-0.63,0.23-0.93c0.21-0.68,1.04-0.95,1.44-0.44c0.89,1.12,1.73,2.3,2.62,3.42c24.17,30.54,67.54,38.08,100.59,17.46
		c25.36-15.82,40.73-45.7,34.02-78.54c-5.1-24.99-20-42.74-42.98-53.73C1203.34,262.09,1201.85,261.65,1200.65,260.93z"/>
	<path class="st3" d="M1008.32,1148.59c3.51-0.55,6.67-2.17,9.93-3.42c15.69-6.03,30.84-13.28,45.59-21.32
		c17.43-9.51,34.03-20.31,49.79-32.4c11.55-8.86,22.67-18.21,33.27-28.21c4.66-4.39,9.38-8.71,13.79-13.34
		c10.92-11.46,21.49-23.22,31.36-35.62c12.16-15.28,23.4-31.21,33.84-47.69c7.02-11.07,13.64-22.39,19.75-33.99
		c3.35-6.37,6.79-12.69,9.92-19.17c6.4-13.24,12.43-26.64,18.03-40.25c5.9-14.34,11.28-28.88,16.18-43.58
		c7.13-21.37,13.31-43.03,18.44-64.96c2.83-12.12,5.51-24.29,7.64-36.55c1.3-7.46,3.12-6.78-5.7-6.78
		c-280.77-0.01-561.53-0.01-842.3,0.01c-7.79,0-6.26-1.13-9.03,6.21c-4.99,13.19-8.41,26.81-11.1,40.61
		c-1.1,5.63-1.6,11.37-2.36,17.06c-1.66,12.38-2.13,24.84-1.68,37.3c0.25,6.85,0.82,13.69,1.56,20.52c0.95,8.74,2.32,17.39,4,26.01
		c1.47,7.53,3.35,14.96,5.45,22.33c4.95,17.41,11.52,34.19,19.32,50.53c10.79,22.6,23.94,43.72,39.16,63.57
		c6.61,8.63,13.65,16.9,20.9,25.02c7.36,8.25,15.29,15.91,23.15,23.65c1.1,1.08,2.05,2.54,3.93,2.38c1.86-1.09,2.86-2.98,4.14-4.58
		c12.98-16.32,27.32-31.32,43.19-44.85c21.2-18.08,44.53-32.72,70.34-43.32c28.74-11.8,58.65-17.65,89.71-17.67
		c8.48-0.01,16.92,0.68,25.35,1.59c14.02,1.52,27.8,4.24,41.26,8.42c62.76,19.51,110.87,57.63,144.25,114.21
		C993.73,1094.61,1003.18,1120.82,1008.32,1148.59z"/>
	<path class="st4" d="M1008.32,1148.59c-5.13-27.76-14.59-53.97-28.93-78.28c-33.38-56.57-81.5-94.7-144.25-114.21
		c-13.46-4.18-27.24-6.9-41.26-8.42c-8.43-0.91-16.86-1.6-25.35-1.59c-31.06,0.03-60.97,5.87-89.71,17.67
		c-25.81,10.6-49.14,25.24-70.34,43.32c-15.87,13.53-30.21,28.53-43.19,44.85c-1.28,1.6-2.27,3.49-4.14,4.58
		c0.06,1.89,1.65,2.65,2.8,3.68c9.5,8.58,19.4,16.67,29.68,24.3c46.62,34.62,98.12,59.03,154.28,73.68
		c19.04,4.97,38.32,8.72,57.84,11.15c23.99,2.99,48.07,4.3,72.26,3.52c11.99-0.39,23.96-1.06,35.88-2.36
		c31.73-3.46,62.71-10.24,92.78-21.01C1007.24,1149.27,1007.77,1148.89,1008.32,1148.59z"/>
	<path class="st5" d="M448.65,370.48c-0.83,0.65-1.03,1.59-1.32,2.51c-4.14,12.98-6.93,26.23-8.73,39.73
		c-2.34,17.52-2.53,35.1-1.59,52.68c0.92,17.26,3.47,34.35,6.92,51.29c0.16,0.78,0.38,1.55,0.54,2.33c0.18,0.88,0.67,1.42,1.6,1.44
		c1.12,0.02,2.24,0.05,3.36,0.05c111.67,0,223.33,0,335,0c1.43,0,2.86,0,4.08,0c1.04-1.08,1.17-2.22,1.36-3.29
		c2.73-15.12,4.85-30.32,5.77-45.65c0.96-16.14,0.96-32.28-0.54-48.41c-1.86-19.99-5.83-39.51-12.69-58.39
		c-9.26-25.46-23.03-48.1-42.45-67.12c-23.44-22.97-51.39-37.63-83.34-44.83c-17.78-4.01-35.78-5.05-53.89-3.69
		c-18.61,1.39-36.6,5.68-53.92,12.66c-0.7,0.28-1.35,0.66-2.07,1.02c1.11,1.52,2.78,1.84,4.15,2.6
		c18.85,10.37,31.72,25.68,37.51,46.46c9.09,32.64-5.06,66.83-34.4,84.2c-33.5,19.82-79.26,11.97-103.02-22.63
		C450.27,372.4,449.8,371.16,448.65,370.48z"/>
	<path class="st5" d="M1200.65,260.93c1.2,0.72,2.69,1.16,4.06,1.82c22.98,10.99,37.88,28.73,42.98,53.73
		c6.7,32.84-8.66,62.72-34.02,78.54c-33.06,20.62-76.43,13.09-100.59-17.46c-0.89-1.13-1.73-2.3-2.62-3.42
		c-0.4-0.5-1.23-0.23-1.44,0.44c-0.09,0.3-0.14,0.62-0.23,0.93c-3.13,11.59-5.28,23.37-6.79,35.28
		c-2.35,18.48-2.51,37.02-1.65,55.58c0.62,13.42,2.09,26.78,4.29,40.05c0.71,4.26,1.46,8.51,2.18,12.76
		c0.15,0.91,0.59,1.43,1.54,1.45c1.12,0.02,2.24,0.04,3.36,0.04c93.6,0,187.2,0.01,280.8-0.02c4.23,0,4.33,1.07,5.43-4.46
		c3.37-16.96,5.9-34.03,7.25-51.26c1.25-15.96,1.61-31.93,0.54-47.95c-1.06-15.84-3.2-31.49-7.04-46.88
		c-5.34-21.41-13.59-41.6-26-59.94c-14.65-21.65-33.46-38.58-57.22-49.76c-19.6-9.23-40.25-13.31-61.89-12.66
		c-17.31,0.52-33.87,4.29-49.83,10.89c-1.03,0.42-2,0.97-2.99,1.49C1200.68,260.17,1200.72,260.43,1200.65,260.93z"/>
</g>
</svg>
